<svg width="56" height="51" viewBox="0 0 56 51" fill="none" xmlns="http://www.w3.org/2000/svg">
<path d="M55.5156 3.8352V47.1648C55.5156 49.2813 53.8133 51 51.7169 51H29.1773C30.2785 50.6328 31.3393 50.1942 32.3496 49.6587C35.5825 47.9502 38.1032 45.5685 39.9116 42.5136C41.72 39.4587 42.6243 35.9703 42.6243 32.0535C42.6243 28.1367 41.7402 24.6585 39.9722 21.6036C39.9722 21.5985 39.9672 21.5985 39.9672 21.5934C39.5176 20.8131 39.0175 20.0787 38.472 19.3851C36.8858 17.3655 34.9006 15.7233 32.5213 14.4483C29.3237 12.7398 25.6867 11.883 21.6152 11.883H5.00095V3.8352C5.00095 1.7187 6.70329 0 8.79965 0H51.7169C53.8133 0 55.5156 1.7187 55.5156 3.8352Z" fill="white"/>
<path d="M33.4306 32.1096C33.4306 34.5321 32.9356 36.6843 31.9505 38.5662C30.9604 40.4481 29.5814 41.9169 27.8083 42.9726C26.0403 44.0334 24.05 44.5587 21.8476 44.5587H13.6844C13.3914 41.3712 12.4418 35.6643 8.88048 29.6208C5.93042 24.6126 2.36914 21.3792 0 19.5483H8.99666C10.4212 20.9202 12.0174 22.7664 13.4268 25.1532C13.5127 25.3011 13.5985 25.449 13.6844 25.5969C16.1091 29.9166 16.7759 33.9405 16.9881 36.2304C16.9881 34.4454 17.2356 29.6565 20.5494 25.1532C22.1557 22.9755 24.0551 21.4353 25.9393 20.3439C26.505 20.5632 27.0556 20.8233 27.581 21.1344C28.8641 21.8841 29.9501 22.848 30.8442 24.0312C31.2231 24.5157 31.5565 25.041 31.8646 25.5969C32.1021 26.0355 32.3142 26.4843 32.4961 26.9433C33.1174 28.5192 33.4306 30.2379 33.4306 32.1096Z" fill="white"/>
</svg>
